<svg width="17.409241" height="9.169434" viewBox="0 0 17.4092 9.16943" fill="none" xmlns="http://www.w3.org/2000/svg" xmlns:xlink="http://www.w3.org/1999/xlink">
	<defs/>
	<path id="Vector" d="M16.2009 0.205566L8.70386 7.51367L1.20685 0.205566C1.07288 0.074707 0.893066 0.00146484 0.705872 0.00146484C0.518616 0.00146484 0.338806 0.074707 0.204834 0.205566C0.140015 0.269043 0.0884399 0.344971 0.0532837 0.428711C0.0181274 0.512451 0 0.602295 0 0.693115C0 0.783936 0.0181274 0.873779 0.0532837 0.95752C0.0884399 1.04126 0.140015 1.11694 0.204834 1.18066L8.18036 8.95654C8.32043 9.09302 8.50824 9.16943 8.70386 9.16943C8.89941 9.16943 9.08728 9.09302 9.22736 8.95654L17.2029 1.18213C17.2682 1.11841 17.3201 1.04248 17.3555 0.958496C17.391 0.874512 17.4092 0.78418 17.4092 0.693115C17.4092 0.601807 17.391 0.511719 17.3555 0.427734C17.3201 0.34375 17.2682 0.267578 17.2029 0.204102C17.0689 0.0732422 16.8891 0 16.7018 0C16.5146 0 16.3348 0.0732422 16.2009 0.204102L16.2009 0.205566Z" fill="currentColor" fill-opacity="1.000000" fill-rule="nonzero"/>
</svg>
