<svg width="21.499939" height="15.500000" viewBox="0 0 21.4999 15.5" fill="none" xmlns="http://www.w3.org/2000/svg" xmlns:xlink="http://www.w3.org/1999/xlink">
	<defs/>
	<path id="Vector" d="M12.8713 9.87122C12.3284 10.4142 11.5784 10.75 10.7499 10.75C9.09308 10.75 7.74994 9.40686 7.74994 7.75C7.74994 6.92151 8.08575 6.17151 8.62872 5.62854M9.48016 0.823242C9.89484 0.774902 10.3184 0.75 10.7499 0.75C15.4139 0.75 19.1498 3.65259 20.7499 7.75C20.3553 8.76038 19.8309 9.69812 19.1946 10.5376M16.2305 13.2305C14.6479 14.196 12.7875 14.75 10.7499 14.75C6.086 14.75 2.3501 11.8474 0.749939 7.75C1.65106 5.44263 3.22949 3.51404 5.26953 2.26941" stroke="currentColor" stroke-opacity="1.000000" stroke-width="1.500000" stroke-linejoin="round"/>
</svg>
